<?xml version="1.0" encoding="UTF-8" standalone="no"?>
<!-- Created with Inkscape (http://www.inkscape.org/) -->

<svg
   xmlns:dc="http://purl.org/dc/elements/1.1/"
   xmlns:cc="http://creativecommons.org/ns#"
   xmlns:rdf="http://www.w3.org/1999/02/22-rdf-syntax-ns#"
   xmlns:svg="http://www.w3.org/2000/svg"
   xmlns="http://www.w3.org/2000/svg"
   xmlns:sodipodi="http://sodipodi.sourceforge.net/DTD/sodipodi-0.dtd"
   xmlns:inkscape="http://www.inkscape.org/namespaces/inkscape"
   width="744.09448819"
   height="1052.3622047"
   id="svg2"
   version="1.1"
   inkscape:version="0.48.4 r9939"
   sodipodi:docname="New document 1">
  <defs
     id="defs4" />
  <sodipodi:namedview
     id="base"
     pagecolor="#ffffff"
     bordercolor="#666666"
     borderopacity="1.0"
     inkscape:pageopacity="0.0"
     inkscape:pageshadow="2"
     inkscape:zoom="0.7"
     inkscape:cx="130.0004"
     inkscape:cy="1013.7967"
     inkscape:document-units="px"
     inkscape:current-layer="layer1"
     showgrid="false"
     inkscape:window-width="1366"
     inkscape:window-height="749"
     inkscape:window-x="0"
     inkscape:window-y="0"
     inkscape:window-maximized="1" />
  <metadata
     id="metadata7">
    <rdf:RDF>
      <cc:Work
         rdf:about="">
        <dc:format>image/svg+xml</dc:format>
        <dc:type
           rdf:resource="http://purl.org/dc/dcmitype/StillImage" />
        <dc:title></dc:title>
      </cc:Work>
    </rdf:RDF>
  </metadata>
  <g
     inkscape:label="Layer 1"
     inkscape:groupmode="layer"
     id="layer1">
    <path
       style="stroke-width:0;stroke-miterlimit:4;stroke-dasharray:none"
       d="m 180.32403,12.40625 0,35.4375 -5.3125,0 0,956.68745 5.3125,0 0,35.4376 49.59375,0 0,-35.4376 5.3125,0 0,-956.68745 -5.3125,0 0,-35.4375 -49.59375,0 z"
       id="rect2985"
       inkscape:connector-curvature="0" />
    <path
       sodipodi:type="arc"
       style="stroke-width:0;stroke-miterlimit:4;stroke-dasharray:none"
       id="path3006"
       sodipodi:cx="231.42857"
       sodipodi:cy="135.21933"
       sodipodi:rx="31.428572"
       sodipodi:ry="28.571428"
       d="m 262.85715,135.21933 a 31.428572,28.571428 0 1 1 -62.85715,0 31.428572,28.571428 0 1 1 62.85715,0 z"
       transform="matrix(0.25366857,0,0,0.27903544,146.41474,-7.6082)" />
    <path
       sodipodi:type="arc"
       style="stroke-width:0;stroke-miterlimit:4;stroke-dasharray:none"
       id="path3006-4"
       sodipodi:cx="231.42857"
       sodipodi:cy="135.21933"
       sodipodi:rx="31.428572"
       sodipodi:ry="28.571428"
       d="m 262.85715,135.21933 a 31.428572,28.571428 0 1 1 -62.85715,0 31.428572,28.571428 0 1 1 62.85715,0 z"
       transform="matrix(0.25366857,0,0,0.27903544,146.41473,984.52128)" />
  </g>
</svg>
