<?xml version="1.0" standalone="no"?>
<!DOCTYPE svg PUBLIC "-//W3C//DTD SVG 1.1//EN" 
  "http://www.w3.org/Graphics/SVG/1.1/DTD/svg11.dtd">
 <svg width="594mm" height="420mm"
   xmlns:dc="http://purl.org/dc/elements/1.1/" 
   xmlns:cc="http://creativecommons.org/ns#"
   xmlns:rdf="http://www.w3.org/1999/02/22-rdf-syntax-ns#"
   xmlns:svg="http://www.w3.org/2000/svg"
   xmlns:sodipodi="http://sodipodi.sourceforge.net/DTD/sodipodi-0.dtd"
   xmlns:inkscape="http://www.inkscape.org/namespaces/inkscape"
   xmlns="http://www.w3.org/2000/svg"
 version="1.1" viewBox="0 0 594 420">
<sodipodi:namedview      id="base"      pagecolor="#ffffff"      bordercolor="#666666"      borderopacity="1.0"      inkscape:pageopacity="0.0"      inkscape:pageshadow="2"     inkscape:zoom="0.35"     inkscape:cx="375"     inkscape:cy="520"     inkscape:document-units="mm"     inkscape:current-layer="layer1"     showgrid="false"     units="mm"     inkscape:window-width="504"     inkscape:window-height="441"     inkscape:window-x="320"     inkscape:window-y="25"     inkscape:window-maximized="0" />
<g transform="scale(1, -1) translate(0,-420)"><!-- diffuser - 0 -->
<path d=" M 239.78,0.00 A 2.22,2.22,0 0 0 242.00,2.23 A 2.23,2.23,0 0 0 244.22,0.00 A 2.22,2.22,0 0 0 242.00,-2.23 A 2.23,2.23,0 0 0 239.78,0.00"  style='stroke-width:0.1px;opacity:0.5' fill='none' stroke='black'/>
<!-- diffuser - 1 -->
<path d=" M -244.22,0.00 A 2.22,2.22,0 0 0 -242.00,2.23 A 2.23,2.23,0 0 0 -239.78,0.00 A 2.22,2.22,0 0 0 -242.00,-2.23 A 2.23,2.23,0 0 0 -244.22,0.00"  style='stroke-width:0.1px;opacity:0.5' fill='none' stroke='black'/>
<!-- diffuser - __border -->
<path d=" M 236.50,8.03 L -236.50,8.03 A 0.52,0.52,0 0 1 -237.03,7.50 L -237.03,7.03 L -246.00,7.03 A 1.02,1.02,0 0 1 -247.03,6.00 L -247.03,-6.00 A 1.03,1.03,0 0 1 -246.00,-7.03 L -237.03,-7.03 L -237.03,-7.50 A 0.53,0.53,0 0 1 -236.50,-8.03 L 236.50,-8.03 A 0.52,0.52,0 0 1 237.03,-7.50 L 237.03,-7.03 L 246.00,-7.03 A 1.02,1.02,0 0 1 247.03,-6.00 L 247.03,6.00 A 1.03,1.03,0 0 1 246.00,7.03 L 237.03,7.03 L 237.03,7.50 A 0.53,0.53,0 0 1 236.50,8.03"  style='stroke-width:0.1px;opacity:0.5' fill='none' stroke='black'/>
</g>
</svg>
