<?xml version="1.0" standalone="no"?>
<!DOCTYPE svg PUBLIC "-//W3C//DTD SVG 1.1//EN" 
  "http://www.w3.org/Graphics/SVG/1.1/DTD/svg11.dtd">
 <svg width="594mm" height="420mm"
   xmlns:dc="http://purl.org/dc/elements/1.1/" 
   xmlns:cc="http://creativecommons.org/ns#"
   xmlns:rdf="http://www.w3.org/1999/02/22-rdf-syntax-ns#"
   xmlns:svg="http://www.w3.org/2000/svg"
   xmlns:sodipodi="http://sodipodi.sourceforge.net/DTD/sodipodi-0.dtd"
   xmlns:inkscape="http://www.inkscape.org/namespaces/inkscape"
   xmlns="http://www.w3.org/2000/svg"
 version="1.1" viewBox="0 0 594 420">
<sodipodi:namedview      id="base"      pagecolor="#ffffff"      bordercolor="#666666"      borderopacity="1.0"      inkscape:pageopacity="0.0"      inkscape:pageshadow="2"     inkscape:zoom="0.35"     inkscape:cx="375"     inkscape:cy="520"     inkscape:document-units="mm"     inkscape:current-layer="layer1"     showgrid="false"     units="mm"     inkscape:window-width="504"     inkscape:window-height="441"     inkscape:window-x="320"     inkscape:window-y="25"     inkscape:window-maximized="0" />
<g transform="scale(1, -1) translate(0,-420)"><g><!-- back - __border -->
<path d=" M -63.02,-20.00 M -63.00,-20.00 L -50.67,-20.00 L -50.67,-17.00 L -41.64,-17.00 L -41.64,-20.00 L -32.21,-20.00 L -32.21,-17.00 L -23.18,-17.00 L -23.18,-20.00 L -13.75,-20.00 L -13.75,-17.00 L -4.72,-17.00 L -4.72,-20.00 L 4.72,-20.00 L 4.72,-17.00 L 13.75,-17.00 L 13.75,-20.00 L 23.18,-20.00 L 23.18,-17.00 L 32.21,-17.00 L 32.21,-20.00 L 41.64,-20.00 L 41.64,-17.00 L 50.67,-17.00 L 50.67,-20.00 L 63.00,-20.00 L 63.00,-5.23 L 60.00,-5.23 L 60.00,6.23 L 63.00,6.23 L 63.00,21.00 L 50.67,21.00 L 50.67,18.00 L 41.64,18.00 L 41.64,21.00 L 32.21,21.00 L 32.21,18.00 L 23.18,18.00 L 23.18,21.00 L 13.75,21.00 L 13.75,18.00 L 4.72,18.00 L 4.72,21.00 L -4.72,21.00 L -4.72,18.00 L -13.75,18.00 L -13.75,21.00 L -23.18,21.00 L -23.18,18.00 L -32.21,18.00 L -32.21,21.00 L -41.64,21.00 L -41.64,18.00 L -50.67,18.00 L -50.67,21.00 L -63.00,21.00 L -63.00,6.23 L -60.00,6.23 L -60.00,-5.23 L -63.00,-5.23 L -63.00,-20.00"  style='stroke-width:0.1px;opacity:1' fill='none' stroke='black'/>
<text transform='scale(1,-1)' text-anchor='middle' x='0' y='0'>back</text></g><g><!-- top - __border -->
<path d=" M -63.02,-60.00 M -63.00,-60.00 L -50.87,-60.00 L -50.87,-63.00 L -41.44,-63.00 L -41.44,-60.00 L -32.41,-60.00 L -32.41,-63.00 L -22.98,-63.00 L -22.98,-60.00 L -13.95,-60.00 L -13.95,-63.00 L -4.52,-63.00 L -4.52,-60.00 L 4.52,-60.00 L 4.52,-63.00 L 13.95,-63.00 L 13.95,-60.00 L 22.98,-60.00 L 22.98,-63.00 L 32.41,-63.00 L 32.41,-60.00 L 41.44,-60.00 L 41.44,-63.00 L 50.87,-63.00 L 50.87,-60.00 L 63.00,-60.00 L 63.00,-50.67 L 60.00,-50.67 L 60.00,-41.64 L 63.00,-41.64 L 63.00,-32.21 L 60.00,-32.21 L 60.00,-23.18 L 63.00,-23.18 L 63.00,-13.75 L 60.00,-13.75 L 60.00,-4.72 L 63.00,-4.72 L 63.00,4.72 L 60.00,4.72 L 60.00,13.75 L 63.00,13.75 L 63.00,23.18 L 60.00,23.18 L 60.00,32.21 L 63.00,32.21 L 63.00,41.64 L 60.00,41.64 L 60.00,50.67 L 63.00,50.67 L 63.00,60.00 L 50.87,60.00 L 50.87,63.00 L 41.44,63.00 L 41.44,60.00 L 32.41,60.00 L 32.41,63.00 L 22.98,63.00 L 22.98,60.00 L 13.95,60.00 L 13.95,63.00 L 4.52,63.00 L 4.52,60.00 L -4.52,60.00 L -4.52,63.00 L -13.95,63.00 L -13.95,60.00 L -22.98,60.00 L -22.98,63.00 L -32.41,63.00 L -32.41,60.00 L -41.44,60.00 L -41.44,63.00 L -50.87,63.00 L -50.87,60.00 L -63.00,60.00 L -63.00,50.67 L -60.00,50.67 L -60.00,41.64 L -63.00,41.64 L -63.00,32.21 L -60.00,32.21 L -60.00,23.18 L -63.00,23.18 L -63.00,13.75 L -60.00,13.75 L -60.00,4.72 L -63.00,4.72 L -63.00,-4.72 L -60.00,-4.72 L -60.00,-13.75 L -63.00,-13.75 L -63.00,-23.18 L -60.00,-23.18 L -60.00,-32.21 L -63.00,-32.21 L -63.00,-41.64 L -60.00,-41.64 L -60.00,-50.67 L -63.00,-50.67 L -63.00,-60.00"  style='stroke-width:0.1px;opacity:1' fill='none' stroke='black'/>
<text transform='scale(1,-1)' text-anchor='middle' x='0' y='0'>top</text></g><g><!-- bottom - __border -->
<path d=" M -63.02,-60.00 M -63.00,-60.00 L -50.87,-60.00 L -50.87,-63.00 L -41.44,-63.00 L -41.44,-60.00 L -32.41,-60.00 L -32.41,-63.00 L -22.98,-63.00 L -22.98,-60.00 L -13.95,-60.00 L -13.95,-63.00 L -4.52,-63.00 L -4.52,-60.00 L 4.52,-60.00 L 4.52,-63.00 L 13.95,-63.00 L 13.95,-60.00 L 22.98,-60.00 L 22.98,-63.00 L 32.41,-63.00 L 32.41,-60.00 L 41.44,-60.00 L 41.44,-63.00 L 50.87,-63.00 L 50.87,-60.00 L 63.00,-60.00 L 63.00,-50.67 L 60.00,-50.67 L 60.00,-41.64 L 63.00,-41.64 L 63.00,-32.21 L 60.00,-32.21 L 60.00,-23.18 L 63.00,-23.18 L 63.00,-13.75 L 60.00,-13.75 L 60.00,-4.72 L 63.00,-4.72 L 63.00,4.72 L 60.00,4.72 L 60.00,13.75 L 63.00,13.75 L 63.00,23.18 L 60.00,23.18 L 60.00,32.21 L 63.00,32.21 L 63.00,41.64 L 60.00,41.64 L 60.00,50.67 L 63.00,50.67 L 63.00,60.00 L 50.87,60.00 L 50.87,63.00 L 41.44,63.00 L 41.44,60.00 L 32.41,60.00 L 32.41,63.00 L 22.98,63.00 L 22.98,60.00 L 13.95,60.00 L 13.95,63.00 L 4.52,63.00 L 4.52,60.00 L -4.52,60.00 L -4.52,63.00 L -13.95,63.00 L -13.95,60.00 L -22.98,60.00 L -22.98,63.00 L -32.41,63.00 L -32.41,60.00 L -41.44,60.00 L -41.44,63.00 L -50.87,63.00 L -50.87,60.00 L -63.00,60.00 L -63.00,50.67 L -60.00,50.67 L -60.00,41.64 L -63.00,41.64 L -63.00,32.21 L -60.00,32.21 L -60.00,23.18 L -63.00,23.18 L -63.00,13.75 L -60.00,13.75 L -60.00,4.72 L -63.00,4.72 L -63.00,-4.72 L -60.00,-4.72 L -60.00,-13.75 L -63.00,-13.75 L -63.00,-23.18 L -60.00,-23.18 L -60.00,-32.21 L -63.00,-32.21 L -63.00,-41.64 L -60.00,-41.64 L -60.00,-50.67 L -63.00,-50.67 L -63.00,-60.00"  style='stroke-width:0.1px;opacity:1' fill='none' stroke='black'/>
<text transform='scale(1,-1)' text-anchor='middle' x='0' y='0'>bottom</text></g><g><!-- side - __border -->
<path d=" M -60.02,-17.00 M -60.00,-17.00 L -50.87,-17.00 L -50.87,-20.00 L -41.44,-20.00 L -41.44,-17.00 L -32.41,-17.00 L -32.41,-20.00 L -22.98,-20.00 L -22.98,-17.00 L -13.95,-17.00 L -13.95,-20.00 L -4.52,-20.00 L -4.52,-17.00 L 4.52,-17.00 L 4.52,-20.00 L 13.95,-20.00 L 13.95,-17.00 L 22.98,-17.00 L 22.98,-20.00 L 32.41,-20.00 L 32.41,-17.00 L 41.44,-17.00 L 41.44,-20.00 L 50.87,-20.00 L 50.87,-17.00 L 60.00,-17.00 L 60.00,-5.43 L 63.00,-5.43 L 63.00,6.43 L 60.00,6.43 L 60.00,18.00 L 50.87,18.00 L 50.87,21.00 L 41.44,21.00 L 41.44,18.00 L 32.41,18.00 L 32.41,21.00 L 22.98,21.00 L 22.98,18.00 L 13.95,18.00 L 13.95,21.00 L 4.52,21.00 L 4.52,18.00 L -4.52,18.00 L -4.52,21.00 L -13.95,21.00 L -13.95,18.00 L -22.98,18.00 L -22.98,21.00 L -32.41,21.00 L -32.41,18.00 L -41.44,18.00 L -41.44,21.00 L -50.87,21.00 L -50.87,18.00 L -60.00,18.00 L -60.00,6.43 L -63.00,6.43 L -63.00,-5.43 L -60.00,-5.43 L -60.00,-17.00"  style='stroke-width:0.1px;opacity:1' fill='none' stroke='black'/>
<text transform='scale(1,-1)' text-anchor='middle' x='0' y='0'>side</text></g></g>
</svg>
